<svg width="32" height="32" viewBox="0 0 32 32" fill="none" xmlns="http://www.w3.org/2000/svg">
<path fill-rule="evenodd" clip-rule="evenodd" d="M12.5676 3.64759C12.7387 2.69468 13.5679 2.00122 14.5361 2.00122L17.4152 2.00122C18.3834 2.00122 19.2125 2.69468 19.3837 3.64759L19.8252 6.10522C19.8903 6.46761 19.6493 6.81416 19.2869 6.87926C18.9245 6.94436 18.578 6.70336 18.5129 6.34097L18.0714 3.88334C18.0143 3.56571 17.7379 3.33455 17.4152 3.33455L14.5361 3.33455C14.2133 3.33455 13.9369 3.56571 13.8799 3.88334L13.5786 5.56048C13.4473 6.29116 12.9302 6.84971 12.3015 7.11698C11.5271 7.44616 10.7811 7.88665 10.0955 8.40969C9.5462 8.82879 8.7991 8.9894 8.10366 8.73337L6.44782 8.12377C6.14437 8.01206 5.80451 8.13421 5.64161 8.41353L4.21735 10.8557C4.05357 11.1365 4.11624 11.4945 4.36568 11.703L5.7157 12.8315C6.27331 13.2976 6.51844 14.017 6.40974 14.7103C6.34221 15.141 6.29563 15.5626 6.29563 15.9999C6.29563 16.4361 6.31767 16.8391 6.37234 17.2266C6.47083 17.9246 6.26551 18.7088 5.65458 19.2195L4.36569 20.2968C4.11624 20.5053 4.05357 20.8633 4.21736 21.1442L5.64161 23.5863C5.80451 23.8656 6.14437 23.9878 6.44782 23.8761L8.10366 23.2665C8.79883 23.0105 9.54775 23.1703 10.0971 23.5954C10.7753 24.1202 11.4986 24.5582 12.2825 24.8848C12.9182 25.1496 13.4476 25.7103 13.5808 26.4515L13.8799 28.1165C13.9369 28.4341 14.2133 28.6653 14.536 28.6653H17.4152C17.7379 28.6653 18.0143 28.4341 18.0714 28.1165L18.3705 26.4515C18.5037 25.7103 19.0331 25.1496 19.6688 24.8848C20.4527 24.5582 21.1759 24.1202 21.8541 23.5954C22.4035 23.1703 23.1524 23.0105 23.8476 23.2665L25.5035 23.8761C25.8069 23.9878 26.1468 23.8656 26.3097 23.5863L27.7339 21.1442C27.8977 20.8633 27.835 20.5053 27.5856 20.2968L26.2967 19.2195C25.6858 18.7088 25.4804 17.9246 25.5789 17.2266C25.6336 16.8391 25.6556 16.4361 25.6556 15.9999C25.6556 15.5637 25.6336 15.1607 25.5789 14.7733C25.4804 14.0752 25.6858 13.291 26.2967 12.7804L27.5856 11.703C27.835 11.4945 27.8977 11.1365 27.7339 10.8557L26.3097 8.41353C26.1468 8.1342 25.8069 8.01206 25.5035 8.12377L23.1037 9.00723C22.7582 9.13444 22.375 8.95746 22.2478 8.61194C22.1206 8.26642 22.2976 7.8832 22.6431 7.756L25.0428 6.87254C25.9531 6.5374 26.9727 6.90384 27.4614 7.74181L28.8857 10.1839C29.377 11.0265 29.189 12.1005 28.4407 12.726L27.1518 13.8034C26.9617 13.9623 26.8518 14.2513 26.8992 14.587C26.9648 15.0519 26.989 15.5196 26.989 15.9999C26.989 16.4803 26.9648 16.948 26.8992 17.4128C26.8518 17.7485 26.9617 18.0376 27.1518 18.1964L28.4407 19.2738C29.189 19.8993 29.377 20.9734 28.8857 21.8159L27.4614 24.258C26.9727 25.096 25.9531 25.4624 25.0428 25.1273L23.387 24.5177C23.1652 24.4361 22.8935 24.4771 22.6701 24.6499C21.9127 25.236 21.0887 25.7377 20.1815 26.1156C19.9029 26.2316 19.7248 26.4537 19.6828 26.6873L19.3837 28.3522C19.2125 29.3052 18.3834 29.9986 17.4152 29.9986H14.536C13.5679 29.9986 12.7387 29.3052 12.5676 28.3522L12.2685 26.6873C12.2265 26.4537 12.0484 26.2316 11.7698 26.1156C10.8626 25.7377 10.0386 25.236 9.2812 24.6499C9.05782 24.4771 8.78606 24.4361 8.5643 24.5177L6.90846 25.1273C5.99813 25.4624 4.97855 25.096 4.48984 24.258L3.06558 21.8159C2.57423 20.9734 2.76224 19.8993 3.51057 19.2738L4.79947 18.1964C4.98953 18.0376 5.09944 17.7485 5.05208 17.4128C4.98649 16.948 4.9623 16.4803 4.9623 15.9999C4.9623 15.4681 5.01907 14.9721 5.0925 14.5038C5.13259 14.2481 5.04001 14.0044 4.86059 13.8545L3.51057 12.726C2.76224 12.1005 2.57423 11.0265 3.06558 10.1839L4.48984 7.74181C4.97855 6.90384 5.99813 6.5374 6.90846 6.87254L8.5643 7.48214C8.78579 7.56368 9.05931 7.52319 9.28681 7.34963C10.0549 6.76367 10.8966 6.26539 11.7799 5.88992C12.0507 5.7748 12.2247 5.55606 12.2663 5.32472L12.5676 3.64759Z" fill="#767676"/>
<path fill-rule="evenodd" clip-rule="evenodd" d="M15.9755 11.362C13.4139 11.362 11.3373 13.4386 11.3373 16.0002C11.3373 18.5618 13.4139 20.6384 15.9755 20.6384C18.5371 20.6384 20.6137 18.5618 20.6137 16.0002C20.6137 13.4386 18.5371 11.362 15.9755 11.362ZM10.004 16.0002C10.004 12.7022 12.6775 10.0286 15.9755 10.0286C19.2735 10.0286 21.9471 12.7022 21.9471 16.0002C21.9471 19.2982 19.2735 21.9717 15.9755 21.9717C12.6775 21.9717 10.004 19.2982 10.004 16.0002Z" fill="#767676"/>
</svg>
